<svg xmlns="http://www.w3.org/2000/svg" width="117" height="117" viewBox="0 0 117 117" fill="none">
<circle cx="58.5" cy="58.5" r="55" stroke="#40AD74" stroke-width="7"/>
<path d="M56.5859 58.8672C56.5859 64.8516 55.6016 69.2812 53.6328 72.1562C51.6797 75.0312 48.6641 76.4688 44.5859 76.4688C40.6328 76.4688 37.6484 74.9844 35.6328 72.0156C33.6328 69.0469 32.6328 64.6641 32.6328 58.8672C32.6328 52.8203 33.6094 48.3672 35.5625 45.5078C37.5156 42.6328 40.5234 41.1953 44.5859 41.1953C48.5391 41.1953 51.5234 42.6953 53.5391 45.6953C55.5703 48.6953 56.5859 53.0859 56.5859 58.8672ZM39.8281 58.8672C39.8281 63.0703 40.1875 66.0859 40.9062 67.9141C41.6406 69.7266 42.8672 70.6328 44.5859 70.6328C46.2734 70.6328 47.4922 69.7109 48.2422 67.8672C48.9922 66.0234 49.3672 63.0234 49.3672 58.8672C49.3672 54.6641 48.9844 51.6484 48.2188 49.8203C47.4688 47.9766 46.2578 47.0547 44.5859 47.0547C42.8828 47.0547 41.6641 47.9766 40.9297 49.8203C40.1953 51.6484 39.8281 54.6641 39.8281 58.8672Z" fill="#40AD74"/>
<path d="M58.8003 66.208H62.6403V62.464H58.8003V56.512H62.6403V41.728H73.5843C78.0003 41.728 81.2163 42.624 83.2323 44.416C85.2803 46.208 86.3043 48.672 86.3043 51.808C86.3043 53.664 85.8883 55.408 85.0563 57.04C84.2243 58.672 82.8323 59.984 80.8803 60.976C78.9603 61.968 76.3363 62.464 73.0083 62.464H69.8883V66.208H77.2803V70.864H69.8883V76H62.6403V70.864H58.8003V66.208ZM73.2003 47.68H69.8883V56.512H72.2883C74.3363 56.512 75.9523 56.16 77.1363 55.456C78.3523 54.752 78.9603 53.616 78.9603 52.048C78.9603 49.136 77.0403 47.68 73.2003 47.68Z" fill="#40AD74"/>
</svg>