<svg xmlns="http://www.w3.org/2000/svg" width="114" height="115" viewBox="0 0 114 115" fill="none">
<path d="M57 111C27.7286 111 4 87.0475 4 57.5C4 27.9525 27.7286 4 57 4" stroke="#40AD74" stroke-width="7" stroke-miterlimit="10" stroke-linecap="round" stroke-linejoin="round"/>
<path d="M57 111C86.2714 111 110 87.0476 110 57.5C110 45.9147 106.352 35.1922 100.154 26.4355L90.5456 16.7347" stroke="#40AD74" stroke-width="7" stroke-miterlimit="10" stroke-linecap="round" stroke-linejoin="round"/>
<path d="M89.4839 35.0645V16.0806H108.29" stroke="#40AD74" stroke-width="7" stroke-miterlimit="10" stroke-linecap="round" stroke-linejoin="round"/>
<path d="M55.9531 74H32V68.9609L40.6016 60.2656C43.1484 57.6562 44.8125 55.8516 45.5938 54.8516C46.375 53.8359 46.9375 52.8984 47.2812 52.0391C47.625 51.1797 47.7969 50.2891 47.7969 49.3672C47.7969 47.9922 47.4141 46.9688 46.6484 46.2969C45.8984 45.625 44.8906 45.2891 43.625 45.2891C42.2969 45.2891 41.0078 45.5938 39.7578 46.2031C38.5078 46.8125 37.2031 47.6797 35.8438 48.8047L31.9062 44.1406C33.5938 42.7031 34.9922 41.6875 36.1016 41.0938C37.2109 40.5 38.4219 40.0469 39.7344 39.7344C41.0469 39.4062 42.5156 39.2422 44.1406 39.2422C46.2812 39.2422 48.1719 39.6328 49.8125 40.4141C51.4531 41.1953 52.7266 42.2891 53.6328 43.6953C54.5391 45.1016 54.9922 46.7109 54.9922 48.5234C54.9922 50.1016 54.7109 51.5859 54.1484 52.9766C53.6016 54.3516 52.7422 55.7656 51.5703 57.2188C50.4141 58.6719 48.3672 60.7422 45.4297 63.4297L41.0234 67.5781V67.9062H55.9531V74ZM84.1484 66.8984H80.0234V74H72.9453V66.8984H58.3203V61.8594L73.3438 39.7344H80.0234V61.2734H84.1484V66.8984ZM72.9453 61.2734V55.4609C72.9453 54.4922 72.9844 53.0859 73.0625 51.2422C73.1406 49.3984 73.2031 48.3281 73.25 48.0312H73.0625C72.4844 49.3125 71.7891 50.5625 70.9766 51.7812L64.6953 61.2734H72.9453Z" fill="#40AD74"/>
</svg>