<svg xmlns="http://www.w3.org/2000/svg" width="124" height="124" viewBox="0 0 124 124" fill="none">
<g clip-path="url(#clip0)">
<path d="M101.789 7.29412H98.4706V3.64706C98.4706 1.63024 96.8404 0 94.8236 0C92.8067 0 91.1765 1.63024 91.1765 3.64706V7.29412H65.6471V3.64706C65.6471 1.63024 64.0169 0 62 0C59.9832 0 58.353 1.63024 58.353 3.64706V7.29412H32.8236V3.64706C32.8236 1.63024 31.1933 0 29.1765 0C27.1597 0 25.5294 1.63024 25.5294 3.64706V7.29412H22.2106C11.9733 7.29412 3.64709 15.6204 3.64709 25.8576V105.436C3.64709 115.674 11.9733 124 22.2106 124H101.789C112.027 124 120.353 115.674 120.353 105.436V25.8576C120.353 15.6204 112.027 7.29412 101.789 7.29412ZM113.059 105.436C113.059 111.651 108 116.706 101.789 116.706H22.2106C15.996 116.706 10.9412 111.651 10.9412 105.436V43.7647H113.059V105.436ZM113.059 36.4706H10.9412V25.8576C10.9412 19.6431 15.996 14.5882 22.2106 14.5882H25.5294V25.5294C25.5294 27.5462 27.1597 29.1765 29.1765 29.1765C31.1933 29.1765 32.8236 27.5462 32.8236 25.5294V14.5882H58.353V25.5294C58.353 27.5462 59.9832 29.1765 62 29.1765C64.0169 29.1765 65.6471 27.5462 65.6471 25.5294V14.5882H91.1765V25.5294C91.1765 27.5462 92.8067 29.1765 94.8236 29.1765C96.8404 29.1765 98.4706 27.5462 98.4706 25.5294V14.5882H101.789C108 14.5882 113.059 19.6431 113.059 25.8576V36.4706Z" fill="#40AD74"/>
<path d="M53.8158 92.9524H46.5736V73.1243L46.6439 69.8665L46.7611 66.304C45.558 67.5071 44.7221 68.2961 44.2533 68.6711L40.3158 71.8352L36.8236 67.4758L47.8627 58.6868H53.8158V92.9524ZM75.8002 71.0618C79.1127 71.0618 81.7455 71.9915 83.6986 73.8508C85.6674 75.7102 86.6518 78.2571 86.6518 81.4915C86.6518 85.3196 85.4721 88.2649 83.1127 90.3274C80.7533 92.3899 77.3783 93.4211 72.9877 93.4211C69.1752 93.4211 66.0971 92.804 63.7533 91.5696V85.3118C64.9877 85.968 66.4252 86.5071 68.0658 86.929C69.7064 87.3352 71.2611 87.5383 72.7299 87.5383C77.1518 87.5383 79.3627 85.7258 79.3627 82.1008C79.3627 78.6477 77.0736 76.9211 72.4955 76.9211C71.6674 76.9211 70.7533 77.0071 69.7533 77.179C68.7533 77.3352 67.9408 77.5071 67.3158 77.6946L64.433 76.1477L65.7221 58.6868H84.308V64.8274H72.0736L71.4408 71.554L72.2611 71.3899C73.2143 71.1711 74.3939 71.0618 75.8002 71.0618Z" fill="#40AD74"/>
</g>
<defs>
<clipPath id="clip0">
<rect width="124" height="124" fill="white"/>
</clipPath>
</defs>
</svg>