<svg xmlns="http://www.w3.org/2000/svg" width="95" height="99" viewBox="0 0 95 99" fill="none">
<path d="M86.4903 44.2389C86.9734 46.8159 87.2956 49.3929 87.4566 51.9699H82.7858C81.8195 51.9699 81.1752 52.7752 81.1752 53.5805C81.1752 54.5469 81.8195 55.1911 82.7858 55.1911H87.4566C87.2956 61.6336 85.5239 67.754 82.6248 73.2301L78.5982 70.9752C77.7929 70.492 76.8265 70.8142 76.3434 71.6195C75.8602 72.4248 76.1823 73.3912 76.9876 73.8743L81.0142 76.1292C77.6319 81.4442 73.1221 85.954 67.8071 89.3363L65.5522 85.3097C65.069 84.5044 64.1027 84.1823 63.2973 84.6655C62.492 85.1487 62.331 86.115 62.6531 86.9203L65.069 90.9469C59.5929 93.846 53.4726 95.4566 47.0301 95.7788V91.108C47.0301 90.3027 46.2248 89.4973 45.4195 89.4973C44.4531 89.4973 43.8088 90.3027 43.8088 91.108V95.7788C37.3664 95.4566 31.246 93.846 25.7699 90.9469L28.0248 86.9203C28.508 86.115 28.1858 85.1487 27.3805 84.6655C26.5752 84.1823 25.6088 84.5044 25.1257 85.3097L22.8708 89.3363C17.5558 85.954 13.046 81.4442 9.66372 76.1292L13.6903 73.8743C14.4956 73.3912 14.6566 72.4248 14.3345 71.6195C13.8513 70.8142 12.885 70.6531 12.0796 70.9752L8.0531 73.2301C5.15398 67.754 3.54336 61.6336 3.22124 55.1911H7.89204C8.85841 55.1911 9.50266 54.5469 9.50266 53.5805C9.50266 52.7752 8.85841 51.9699 7.89204 51.9699H3.22124C3.54336 45.5274 5.15398 39.4071 8.0531 33.931L12.0796 36.1858C12.885 36.669 13.8513 36.3469 14.3345 35.5416C14.8177 34.7363 14.4956 33.7699 13.6903 33.2867L9.66372 31.0319C13.046 25.7168 17.5558 21.2071 22.8708 17.8248L25.1257 21.8513C25.6088 22.6566 26.5752 22.8177 27.3805 22.4956C28.1858 22.0124 28.3469 21.046 28.0248 20.2407L25.7699 16.2142C31.246 13.315 37.3664 11.5434 43.8088 11.3823V16.0531C43.8088 16.8584 44.4531 17.6637 45.4195 17.6637C46.2248 17.6637 47.0301 16.8584 47.0301 16.0531V11.3823C49.1239 11.3823 51.2177 11.7044 53.3115 12.0265C53.6336 10.8991 53.9557 9.93274 54.2779 8.96637C51.3788 8.32212 48.3186 8 45.4195 8C20.2938 8.16106 0 28.6159 0 53.5805C0 78.5451 20.2938 99 45.2584 99C75.0549 99 96.315 70.9752 89.5504 43.1115C88.5841 43.5947 87.4566 43.9168 86.4903 44.2389Z" fill="#40AD74"/>
<path d="M45.4194 31.354C44.453 31.354 43.8088 32.1593 43.8088 32.9646V48.4266C42.1981 48.9098 40.9096 50.1983 40.2654 51.8089H21.099C20.2937 51.8089 19.4884 52.6142 19.4884 53.4195C19.4884 54.3859 20.2937 55.0301 21.099 55.0301H40.2654C40.9096 57.1239 43.0034 58.7345 45.4194 58.7345C48.3185 58.7345 50.7344 56.3186 50.7344 53.4195C50.7344 51.0036 49.1238 49.0708 47.03 48.4266V32.9646C47.03 32.1593 46.2247 31.354 45.4194 31.354Z" fill="#40AD74"/>
<line x1="2" y1="-2" x2="23.2678" y2="-2" transform="matrix(0.516183 0.856479 -0.854514 0.519428 59.2051 16.1694)" stroke="#40AD74" stroke-width="4" stroke-linecap="round" stroke-linejoin="round"/>
<line x1="2" y1="-2" x2="38.6198" y2="-2" transform="matrix(0.50678 -0.862076 0.86017 0.510008 74.4147 37.0173)" stroke="#40AD74" stroke-width="4" stroke-linecap="round" stroke-linejoin="round"/>
</svg>