<svg xmlns="http://www.w3.org/2000/svg" width="100" height="106" viewBox="0 0 100 106" fill="none">
<path d="M71.1818 0L74.8663 1.03304L74.9321 4.49863C75.6714 4.96881 76.3903 5.50755 77.0046 6.13144L80.3273 5.26515L82.2354 8.63066L79.8667 11.1299C80.0752 12.0076 80.1917 12.853 80.1957 13.7623L83.1565 15.595L82.1695 19.3272L78.7153 19.3607C78.2791 20.1259 77.7192 20.8713 77.1033 21.4934L77.9587 24.859L74.6689 26.7917L72.1687 24.3924C71.3302 24.6203 70.4674 24.7216 69.5698 24.7257L67.7933 27.7246L64.0759 26.7251L64.043 23.2261C63.2597 22.7678 62.5848 22.2173 61.9705 21.5932L58.615 22.4597L56.7069 19.1275L59.1084 16.595C58.8838 15.7456 58.7834 14.8382 58.7794 13.9291L55.7858 12.1631L56.8056 8.39742L60.2269 8.36388C60.7072 7.58641 61.223 6.88694 61.8389 6.26446L61.0165 2.86568L64.3062 0.93276L66.7735 3.3655C67.64 3.15404 68.5077 3.0028 69.4053 2.99891C69.9973 1.99937 70.59 0.998885 71.1818 0ZM69.4712 6.39795C65.4387 6.39795 62.1021 9.77783 62.1021 13.8623C62.1021 17.9471 65.4387 21.3266 69.4712 21.3266C73.5036 21.3266 76.8402 17.9471 76.8402 13.8623C76.8402 9.77783 73.5036 6.39795 69.4712 6.39795ZM47.364 7.89753C49.4853 7.89753 51.5397 8.09859 53.5158 8.43076L52.7263 11.3297C52.3416 12.9565 53.2154 14.3223 54.5028 15.1286C52.2595 14.5974 49.8856 14.2955 47.364 14.2955C35.7269 14.2955 26.7754 16.9714 21.2763 22.093C15.7772 27.2147 13.1398 34.933 14.6968 46.9184C14.8055 47.7343 14.5884 48.5896 14.1046 49.2511C11.6201 52.6732 9.13666 56.811 7.59091 60.1143C10.0516 60.1143 11.5824 61.8238 11.5715 63.4801C11.4669 66.374 11.4881 67.664 11.5715 69.8781C12.7465 70.541 13.6536 71.8183 13.6769 72.9439C13.542 76.3276 14.2731 79.8648 15.0586 82.7074C20.2326 83.1341 25.257 81.4878 30.1915 81.6077C31.5186 81.6553 32.7605 82.6453 33.1194 83.9404C34.6083 89.4194 34.5053 94.3814 33.9089 99.602H65.984C63.0257 91.4013 61.3501 83.4554 61.181 73.1438C61.1617 72.299 61.4891 71.4515 62.0692 70.8445C66.4163 66.2808 70.4667 62.2165 73.0241 56.4824C74.6811 57.9179 75.8882 57.6333 77.7613 57.1488C77.6467 58.2093 77.8274 59.287 78.1232 60.1813C75.2935 65.9187 71.3355 70.265 67.5631 74.2433C67.8702 84.9959 69.7351 92.5472 73.4518 101.568C73.8514 102.538 73.7325 103.694 73.1557 104.567C72.5788 105.44 71.5612 106.004 70.5239 106H30.4547C28.634 106 27.0452 104.123 27.3294 102.301C28.1989 96.9157 28.4224 92.8193 27.5597 88.2389C22.3922 88.5993 16.8536 89.7992 11.9992 88.8724C10.9149 88.6485 9.9772 87.8043 9.63055 86.7398C8.57688 82.6709 7.39875 78.6243 7.36062 74.9429C5.86559 74.2728 5.34329 73.149 5.25519 72.0772C5.08094 69.253 5.20125 67.9432 5.25519 66.3457C3.97397 66.1925 2.50363 66.1578 0.912717 64.5463C0.15045 63.7687 -0.172816 62.5767 0.0902695 61.5139C1.35159 56.4034 5.14397 50.9048 8.38046 46.4186C7.04844 33.767 10.1248 23.7947 17.0325 17.3612C24.199 10.6866 34.7886 7.89753 47.364 7.89753ZM52.4302 26.725L57.4965 28.1244L57.5951 32.9228C58.6187 33.5739 59.6395 34.325 60.4901 35.1889L65.0957 34.0225L67.7275 38.6544L64.4378 42.1199C64.7264 43.3355 64.8928 44.5264 64.8983 45.7856L69.0105 48.2847L67.6617 53.4498L62.8587 53.5493C62.2547 54.6088 61.4743 55.5867 60.6216 56.4483L61.8059 61.1469L57.2661 63.8127L53.779 60.4804C52.6179 60.7958 51.4031 60.9081 50.1602 60.9136L47.7258 65.1123L42.5938 63.7126L42.5609 58.8808C41.4763 58.2463 40.5165 57.4787 39.6659 56.6149L34.9945 57.8146L32.3627 53.1826L35.7182 49.6838C35.4072 48.5079 35.2303 47.2772 35.2248 46.0182L31.1126 43.5524L32.4943 38.354L37.2315 38.2869C37.8966 37.2106 38.6158 36.2164 39.4686 35.3546L38.35 30.6561L42.8899 27.9903L46.3112 31.3559C47.511 31.0633 48.72 30.8616 49.9629 30.8561C50.7849 29.4796 51.609 28.0988 52.4302 26.725ZM88.0254 31.9898L91.7099 33.0229L91.7756 36.4884C92.5149 36.9586 93.2338 37.4972 93.8482 38.1212L97.1708 37.255L99.0789 40.6205L96.7102 43.1197C96.9187 43.9974 97.0353 44.8429 97.0392 45.7522L100 47.5849L99.0131 51.3171L95.5588 51.3506C95.1226 52.1159 94.5627 52.8613 93.9469 53.4834L94.8022 56.849L91.5124 58.7817L89.0122 56.3824C88.1737 56.6103 87.311 56.7116 86.4133 56.7157L84.6368 59.7147L80.9194 58.715L80.8866 55.2161C80.1032 54.7577 79.4283 54.2072 78.814 53.5833L75.4585 54.4497L73.5504 51.1174L75.9519 48.5849C75.7273 47.7356 75.627 46.8281 75.623 45.9191L72.6292 44.1527L73.6491 40.3872L77.0704 40.3536C77.5507 39.5763 78.0665 38.8768 78.6824 38.2543L77.8599 34.8555L81.1497 32.9226L83.617 35.3553C84.4835 35.1439 85.3512 34.9927 86.2488 34.9888C86.8408 33.9892 87.4335 32.9887 88.0254 31.9898ZM50.0287 34.1559C43.6707 34.1559 38.4488 39.4453 38.4488 45.8856C38.4488 52.3257 43.6707 57.6151 50.0287 57.6151C56.3868 57.6151 61.6086 52.3257 61.6086 45.8856C61.6086 39.4453 56.3868 34.1559 50.0287 34.1559ZM86.3147 38.3878C82.2822 38.3878 78.9456 41.7676 78.9456 45.8521C78.9456 49.9369 82.2822 53.3165 86.3147 53.3165C90.3471 53.3165 93.6837 49.9369 93.6837 45.8521C93.6837 41.7676 90.3471 38.3878 86.3147 38.3878Z" fill="#40AD74"/>
</svg>