<svg xmlns="http://www.w3.org/2000/svg" width="109" height="109" viewBox="0 0 109 109" fill="none">
<path d="M35.159 72.7963C35.159 72.6278 35.159 72.6278 35.159 72.4593C36.8408 63.1926 44.9136 56.4532 54.3317 56.4532C63.7499 56.4532 71.8226 63.1926 73.5045 72.4593C73.5045 72.6278 73.5045 72.6278 73.5045 72.7963V73.4702C78.5499 68.5842 81.409 62.0132 81.409 54.5999C81.409 39.7732 69.2999 27.6423 54.4999 27.6423C39.6999 27.6423 27.5908 39.7732 27.5908 54.5999C27.5908 62.0132 30.4499 68.5842 35.3272 73.4702V72.7963H35.159ZM54.4999 36.0666C59.5454 36.0666 63.7499 40.2787 63.7499 45.3332C63.7499 50.3878 59.5454 54.5999 54.4999 54.5999C49.4545 54.5999 45.2499 50.3878 45.2499 45.3332C45.2499 40.2787 49.4545 36.0666 54.4999 36.0666Z" fill="#40AD74"/>
<path d="M55.6773 1.19027C55.0045 0.51633 53.9954 0.51633 53.3227 1.19027L48.95 5.57088C48.2773 6.24481 48.2773 7.25572 48.95 7.92966C49.6227 8.6036 50.6318 8.6036 51.3045 7.92966L52.8182 6.4133V20.7345C52.8182 21.7454 53.4909 22.4194 54.5 22.4194C55.5091 22.4194 56.1818 21.7454 56.1818 20.7345V6.4133L57.6954 7.92966C58.3682 8.6036 59.3773 8.6036 60.05 7.92966C60.7227 7.25572 60.7227 6.24481 60.05 5.57088L55.6773 1.19027Z" fill="#40AD74"/>
<path d="M21.7045 19.3865H23.7227C24.7318 19.3865 25.4045 18.7126 25.4045 17.7017C25.4045 16.6908 24.7318 16.0168 23.7227 16.0168H17.6681C16.6591 16.0168 15.9863 16.6908 15.9863 17.7017V23.7671C15.9863 24.7781 16.6591 25.452 17.6681 25.452C18.6772 25.452 19.35 24.7781 19.35 23.7671V21.7453L29.4409 31.8544C30.1136 32.5284 31.1227 32.5284 31.7954 31.8544C32.4681 31.1805 32.4681 30.1696 31.7954 29.4956L21.7045 19.3865Z" fill="#40AD74"/>
<path d="M6.39995 56.2847H20.6954C21.7045 56.2847 22.3772 55.6108 22.3772 54.5999C22.3772 53.589 21.7045 52.915 20.6954 52.915H6.39995L7.91358 51.3987C8.58631 50.7247 8.58631 49.7138 7.91358 49.0399C7.24085 48.3659 6.23176 48.3659 5.55904 49.0399L1.18631 53.4205C0.513581 54.0944 0.513581 55.1053 1.18631 55.7793L5.55904 60.1599C6.23176 60.8338 7.24085 60.8338 7.91358 60.1599C8.58631 59.4859 8.58631 58.475 7.91358 57.8011L6.39995 56.2847Z" fill="#40AD74"/>
<path d="M29.4409 77.3453L19.35 87.4544V85.4326C19.35 84.4217 18.6772 83.7477 17.6681 83.7477C16.6591 83.7477 15.9863 84.4217 15.9863 85.4326V91.498C15.9863 92.5089 16.6591 93.1829 17.6681 93.1829H23.7227C24.7318 93.1829 25.4045 92.5089 25.4045 91.498C25.4045 90.4871 24.7318 89.8132 23.7227 89.8132H21.7045L31.7954 79.7041C32.4681 79.0301 32.4681 78.0192 31.7954 77.3453C31.1227 76.6714 30.1136 76.6714 29.4409 77.3453Z" fill="#40AD74"/>
<path d="M57.6954 101.27L56.1818 102.787V88.4654C56.1818 87.4545 55.5091 86.7805 54.5 86.7805C53.4909 86.7805 52.8182 87.4545 52.8182 88.4654V102.787L51.3045 101.27C50.6318 100.596 49.6227 100.596 48.95 101.27C48.2773 101.944 48.2773 102.955 48.95 103.629L53.3227 108.01C53.9954 108.684 55.0045 108.684 55.6773 108.01L60.05 103.629C60.7227 102.955 60.7227 101.944 60.05 101.27C59.3773 100.596 58.2 100.596 57.6954 101.27Z" fill="#40AD74"/>
<path d="M91.3318 83.7477C90.3227 83.7477 89.65 84.4217 89.65 85.4326V87.4544L79.559 77.3453C78.8863 76.6714 77.8772 76.6714 77.2045 77.3453C76.5318 78.0192 76.5318 79.0301 77.2045 79.7041L87.2954 89.8132H85.2772C84.2681 89.8132 83.5954 90.4871 83.5954 91.498C83.5954 92.5089 84.2681 93.1829 85.2772 93.1829H91.3318C92.3409 93.1829 93.0136 92.5089 93.0136 91.498V85.4326C93.0136 84.4217 92.3409 83.7477 91.3318 83.7477Z" fill="#40AD74"/>
<path d="M107.814 53.4205L103.441 49.0399C102.768 48.3659 101.759 48.3659 101.086 49.0399C100.414 49.7138 100.414 50.7247 101.086 51.3987L102.6 52.915H88.3045C87.2954 52.915 86.6227 53.589 86.6227 54.5999C86.6227 55.6108 87.2954 56.2847 88.3045 56.2847H102.6L101.086 57.8011C100.414 58.475 100.414 59.4859 101.086 60.1599C101.759 60.8338 102.768 60.8338 103.441 60.1599L107.814 55.7793C108.15 55.4423 108.318 55.1053 108.318 54.5999C108.318 54.0944 108.15 53.7575 107.814 53.4205Z" fill="#40AD74"/>
<path d="M79.559 31.8544L89.65 21.7453V23.7671C89.65 24.7781 90.3227 25.452 91.3318 25.452C92.3409 25.452 93.0136 24.7781 93.0136 23.7671V17.7017C93.0136 16.6908 92.3409 16.0168 91.3318 16.0168H85.2772C84.2681 16.0168 83.5954 16.6908 83.5954 17.7017C83.5954 18.7126 84.2681 19.3865 85.2772 19.3865H87.2954L77.2045 29.4956C76.5318 30.1696 76.5318 31.1805 77.2045 31.8544C77.8772 32.5284 78.8863 32.5284 79.559 31.8544Z" fill="#40AD74"/>
</svg>