<svg xmlns="http://www.w3.org/2000/svg" width="133" height="113" viewBox="0 0 133 113" fill="none">
<path d="M44.904 56.1482C33.7787 61.4921 26.0743 72.8625 26.071 86.0205V86.0214V88.3557C19.3384 87.7157 11.7975 86.335 3.5 83.8182V65.8514C3.5 54.0149 13.1365 44.378 24.9751 44.378H40.1588C40.8153 48.7111 42.4775 52.7178 44.904 56.1482ZM97.2251 103.999C95.0288 104.997 85.314 108.962 69.632 108.962C60.8193 108.962 50.098 107.713 37.7285 103.957V85.9915C37.7285 74.1528 47.3654 64.5148 59.2035 64.5148H75.7551C87.5934 64.5148 97.2294 74.1528 97.2251 85.9902V85.9915V103.999ZM83.487 40.1793C83.487 49.0186 76.3215 56.1853 67.4809 56.1853C58.6407 56.1853 51.4716 49.0189 51.4716 40.1809C51.4716 31.3426 58.641 24.1749 67.4809 24.1749C76.3205 24.1749 83.487 31.3405 83.487 40.1793ZM49.2463 19.4615C44.9031 23.2832 41.7648 28.4435 40.4845 34.306C38.3071 35.4194 35.8556 36.0502 33.2542 36.0502C24.4117 36.0502 17.2481 28.8833 17.2481 20.0475C17.2481 11.2065 24.4119 4.0415 33.2542 4.0415C41.8937 4.0415 48.9379 10.8921 49.2463 19.4615Z" stroke="#40AD74" stroke-width="7" stroke-linecap="round" stroke-linejoin="round"/>
<path d="M108.438 44.6346H93.555C92.9065 48.8628 91.2861 52.7743 88.9252 56.1298C99.8527 61.407 107.415 72.5914 107.418 85.5306V85.5315V87.7636C114.008 87.133 121.386 85.7801 129.5 83.3218V65.6951C129.5 54.0862 120.049 44.6346 108.438 44.6346ZM93.2357 34.6322C95.3631 35.7154 97.7566 36.3287 100.296 36.3287C108.96 36.3287 115.979 29.3063 115.979 20.6486C115.979 11.9857 108.96 4.96509 100.296 4.96509C91.8395 4.96509 84.943 11.663 84.6269 20.047C88.89 23.8057 91.9721 28.8746 93.2357 34.6322Z" stroke="#40AD74" stroke-width="7" stroke-linecap="round" stroke-linejoin="round"/>
</svg>