<svg xmlns="http://www.w3.org/2000/svg" width="95" height="95" viewBox="0 0 95 95" fill="none">
<g clip-path="url(#clip0)">
<path d="M47.5018 0.170666C35.9182 0.162642 24.7318 4.39383 16.0541 12.0659C15.3454 12.6917 15.2785 13.7736 15.9057 14.4823C16.5315 15.1911 17.6134 15.2566 18.3208 14.6308C35.9904 -0.958006 62.7964 0.1145 79.1635 17.0646C95.5306 34.0134 95.6656 60.8408 79.4697 77.9541C63.2725 95.0674 36.4785 96.4087 18.6538 80.9991C0.830422 65.5882 -1.71444 38.8812 12.8781 20.3825C13.4638 19.6403 13.3368 18.5637 12.5946 17.978C11.8524 17.3923 10.7758 17.5193 10.1901 18.2615C3.55314 26.6222 -0.0401527 36.9943 -3.38784e-05 47.6698C-3.38784e-05 73.9034 21.2669 95.169 47.4991 95.1703C73.7327 95.1703 94.9997 73.9048 94.9997 47.6712C95.001 21.4376 73.7354 0.170666 47.5018 0.170666Z" fill="#40AD74"/>
<path d="M75.4913 70.9748C76.2455 71.5445 77.3194 71.396 77.8904 70.6431C90.0838 54.5235 87.5724 31.6892 72.1695 18.6052C56.7652 5.51983 33.8254 6.73542 19.8908 21.3747C5.95627 36.014 5.87202 58.9846 19.6996 73.7256C33.5272 88.4665 56.4577 89.8493 71.9555 76.8776C72.4396 76.4898 72.6763 75.8706 72.5733 75.2581C72.4704 74.647 72.0451 74.1388 71.4607 73.9302C70.8763 73.7216 70.2251 73.8459 69.7583 74.2538C57.2961 84.6887 39.2588 85.0658 26.3713 75.1618C13.4839 65.2579 9.20722 47.73 16.0836 33.0038C22.9586 18.2762 39.1438 10.302 55.0107 13.8231C70.8777 17.3455 82.1697 31.4164 82.1697 47.6698C82.1951 55.2188 79.7318 62.5672 75.1637 68.577C74.5926 69.3299 74.7397 70.4024 75.4913 70.9748Z" fill="#40AD74"/>
<path d="M36.8543 54.955H40.7693V50.95H36.8543V47.53H40.7693V31.87H49.2293C53.1593 31.87 56.0693 32.665 57.9593 34.255C59.8793 35.845 60.8393 38.155 60.8393 41.185C60.8393 44.245 59.7893 46.645 57.6893 48.385C55.6193 50.095 52.5893 50.95 48.5993 50.95H44.8193V54.955H52.2443V57.88H44.8193V64H40.7693V57.88H36.8543V54.955ZM48.8693 35.29H44.8193V47.53H48.0143C50.7443 47.53 52.8593 47.08 54.3593 46.18C55.8893 45.28 56.6543 43.66 56.6543 41.32C56.6543 39.28 56.0243 37.765 54.7643 36.775C53.5043 35.785 51.5393 35.29 48.8693 35.29Z" fill="#40AD74"/>
</g>
<defs>
<clipPath id="clip0">
<rect width="95" height="95" fill="white"/>
</clipPath>
</defs>
</svg>